<svg width="89" height="28" viewBox="0 0 89 28" fill="none" xmlns="http://www.w3.org/2000/svg">
    <path d="M24.3256 17.5849C22.8789 17.5849 21.5234 16.9725 20.2918 15.9754L20.5917 14.5679L20.6048 14.5158C20.8718 13.0171 21.719 10.5017 24.3256 10.5017C26.2803 10.5017 27.8704 12.0917 27.8704 14.0465C27.8638 15.9949 26.2739 17.5849 24.3256 17.5849ZM24.3256 6.9113C20.9956 6.9113 18.4153 9.07471 17.3663 12.6326C15.7632 10.228 14.5511 7.34141 13.8409 4.91079H10.2569V14.2355C10.2569 16.0731 8.75817 17.5717 6.92056 17.5717C5.08294 17.5717 3.58434 16.0731 3.58434 14.2355V4.91079H4.08729e-05V14.2355C-0.012998 18.0542 3.0953 21.1884 6.91378 21.1884C10.7324 21.1884 13.8407 18.0542 13.8407 14.2355V12.6717C14.5379 14.1248 15.3915 15.5909 16.4276 16.8942L14.2315 27.2158H17.9003L19.4902 19.7287C20.8847 20.6214 22.4878 21.1819 24.3254 21.1819C28.2546 21.1819 31.4542 17.9629 31.4542 14.0335C31.4542 10.1107 28.2548 6.9113 24.3256 6.9113Z" fill="#6FDA44"/>
    <path d="M42.395 7.31528L44.7083 16.64L47.2563 7.31528H50.2928L46.3766 20.7909H43.3399L40.9356 11.4074L38.5375 20.7843H35.501L31.5844 7.30885H34.6211L37.1689 16.6336L39.4822 7.30885H42.3949L42.395 7.31528ZM57.5584 6.91125C53.6161 6.91125 50.4232 10.1106 50.4232 14.0465C50.4232 17.9889 53.6226 21.1819 57.5584 21.1819C61.5008 21.1819 64.7002 17.9889 64.7002 14.0465C64.7002 10.1042 61.5008 6.91125 57.5584 6.91125ZM57.5584 18.2495C55.2387 18.2495 53.362 16.3728 53.362 14.0531C53.362 11.7332 55.2451 9.85665 57.5584 9.85665C59.8783 9.85665 61.7548 11.7332 61.7548 14.0531C61.7548 16.3664 59.8783 18.2495 57.5584 18.2495ZM73.3733 10.3323C71.3339 10.3323 69.6852 11.9874 69.6852 14.0204V20.7843H66.6289V7.31528H69.6852V9.38742C69.6852 9.38742 70.9884 7.30868 73.6666 7.30868H74.6049V10.3323H73.3733ZM83.6301 13.5253C85.7997 12.3001 87.2726 9.97382 87.2726 7.30868H84.2163C84.2163 9.55675 82.3919 11.3813 80.1438 11.3813H79.7332V0.812012H76.6772V20.7841H79.7332V14.4375H80.0983C80.398 14.4375 80.789 14.6331 80.9649 14.874L85.3046 20.7843H88.9668L83.6301 13.5253Z" fill="white"/>
</svg>
