<svg width="36" height="37" viewBox="0 0 36 37" fill="none" xmlns="http://www.w3.org/2000/svg">
    <g clip-path="url(#clip0_380_222)">
        <path d="M18 0.887207C8.45637 0.887207 0.719971 8.62361 0.719971 18.1672C0.719971 27.7108 8.45637 35.4472 18 35.4472C27.5436 35.4472 35.28 27.7108 35.28 18.1672C35.28 8.62361 27.5436 0.887207 18 0.887207ZM13.77 25.3294H10.2708V14.0686H13.77V25.3294ZM11.9988 12.6862C10.8936 12.6862 10.179 11.9032 10.179 10.9348C10.179 9.94661 10.9152 9.18701 12.0438 9.18701C13.1724 9.18701 13.8636 9.94661 13.8852 10.9348C13.8852 11.9032 13.1724 12.6862 11.9988 12.6862ZM26.55 25.3294H23.0508V19.0888C23.0508 17.6362 22.5432 16.6498 21.2778 16.6498C20.3112 16.6498 19.737 17.3176 19.4832 17.9602C19.3896 18.1888 19.3662 18.5128 19.3662 18.835V25.3276H15.8652V17.6596C15.8652 16.2538 15.8202 15.0784 15.7734 14.0668H18.8136L18.9738 15.631H19.044C19.5048 14.8966 20.6334 13.813 22.5216 13.813C24.8238 13.813 26.55 15.3556 26.55 18.6712V25.3294V25.3294Z" fill="white"/>
    </g>
    <defs>
        <clipPath id="clip0_380_222">
            <rect width="36" height="36" fill="white" transform="translate(0 0.166992)"/>
        </clipPath>
    </defs>
</svg>
