<svg width="36" height="37" viewBox="0 0 36 37" fill="none" xmlns="http://www.w3.org/2000/svg">
    <path d="M14.7762 16.701C15.082 16.4795 15.2297 16.1139 15.2297 15.6111C15.2402 15.3721 15.191 15.1365 15.0855 14.9221C14.9906 14.7498 14.85 14.6057 14.6777 14.5037C14.4991 14.3954 14.3007 14.3237 14.0941 14.2928C13.8691 14.2506 13.6406 14.2295 13.4156 14.233H10.9441V17.035H13.6195C14.0801 17.0385 14.4703 16.926 14.7762 16.701V16.701ZM15.191 19.2322C14.8465 18.9686 14.3859 18.8385 13.8129 18.8385H10.9371V22.1432H13.7566C14.0203 22.1432 14.2629 22.1186 14.4984 22.0693C14.7213 22.0258 14.9337 21.9398 15.1242 21.8162C15.3035 21.7002 15.4477 21.542 15.5566 21.3381C15.6621 21.1342 15.7148 20.874 15.7148 20.5611C15.7148 19.9389 15.5391 19.4994 15.191 19.2322V19.2322ZM18 2.41699C9.30234 2.41699 2.25 9.46934 2.25 18.167C2.25 26.8646 9.30234 33.917 18 33.917C26.6977 33.917 33.75 26.8646 33.75 18.167C33.75 9.46934 26.6977 2.41699 18 2.41699ZM21.041 12.5033H25.9066V13.6881H21.041V12.5033ZM18 22.2732C17.7724 22.7052 17.4474 23.0784 17.0508 23.3631C16.6359 23.6514 16.1754 23.8623 15.6867 23.9854C15.1755 24.1224 14.648 24.1898 14.1188 24.1857H8.29688V12.1939H13.957C14.5301 12.1939 15.0504 12.2467 15.525 12.3451C15.9961 12.4436 16.3969 12.6123 16.7344 12.8408C17.0684 13.0693 17.332 13.3752 17.5184 13.7549C17.7012 14.1311 17.7961 14.6021 17.7961 15.1611C17.7961 15.7658 17.659 16.265 17.3848 16.6693C17.107 17.0736 16.7063 17.4006 16.1613 17.6572C16.9031 17.8682 17.448 18.2443 17.8066 18.7717C18.1723 19.3061 18.3516 19.9459 18.3516 20.6982C18.3516 21.31 18.2355 21.8338 18 22.2732ZM27.8016 20.417H21.5297C21.5297 21.099 21.7652 21.7529 22.1203 22.1045C22.4789 22.4525 22.9922 22.6283 23.6637 22.6283C24.1488 22.6283 24.5602 22.5053 24.9117 22.2627C25.2598 22.0201 25.4707 21.7635 25.548 21.4963H27.6504C27.3129 22.5404 26.7996 23.2857 26.1035 23.7357C25.4145 24.1857 24.5707 24.4107 23.5898 24.4107C22.9043 24.4107 22.2891 24.2982 21.7371 24.0838C21.2062 23.8764 20.7281 23.56 20.3344 23.1521C19.9461 22.7333 19.6461 22.2408 19.452 21.7037C19.2375 21.1096 19.132 20.4838 19.1391 19.8545C19.1391 19.2041 19.248 18.5994 19.459 18.0369C19.8633 16.9436 20.7035 16.0682 21.7758 15.6146C22.3488 15.3756 22.9641 15.2561 23.5863 15.2631C24.3246 15.2631 24.9645 15.4037 25.5199 15.692C26.0547 15.9673 26.519 16.3618 26.877 16.8451C27.232 17.3268 27.4816 17.8752 27.6398 18.4939C27.791 19.1021 27.8437 19.742 27.8016 20.417V20.417ZM23.5125 17.0561C23.1328 17.0561 22.8129 17.1229 22.5668 17.2529C22.3207 17.383 22.1168 17.5447 21.9621 17.7311C21.8148 17.911 21.7059 18.1191 21.6422 18.3428C21.5859 18.5291 21.5473 18.7189 21.5332 18.9123H25.418C25.3617 18.3041 25.1508 17.8541 24.8695 17.5377C24.5742 17.2248 24.0996 17.0561 23.5125 17.0561V17.0561Z" fill="white"/>
</svg>
