<svg width="69" height="76" viewBox="0 0 69 76" fill="none" xmlns="http://www.w3.org/2000/svg">
    <path d="M31.9999 2L63 19.8043V51.6663L31.9999 69.4706L1 51.6662V19.8041L31.9999 2Z" fill="white" stroke="#6462D9" strokeWidth="2"/>
    <path d="M32 48.4962C28.9663 48.4962 26.0143 48.2537 23.1729 47.9301C21.5315 47.7432 20.1598 46.5438 19.8933 44.9134C19.6244 43.2688 19.5 41.5672 19.5 39.2161C19.5 36.8651 19.6244 35.1636 19.8933 33.519C20.1598 31.8886 21.5315 30.6893 23.1729 30.5023C26.0143 30.1787 28.9663 29.9362 32 29.9362C35.0337 29.9362 37.9857 30.1787 40.8271 30.5023C42.4685 30.6893 43.8402 31.8886 44.1067 33.519C44.3756 35.1636 44.5 36.8651 44.5 39.2161C44.5 41.5672 44.3756 43.2688 44.1067 44.9134C43.8402 46.5438 42.4685 47.7432 40.8271 47.9301C37.9857 48.2537 35.0337 48.4962 32 48.4962Z" fill="#D7E0FF"/>
    <path d="M23.1729 30.502C21.5315 30.6889 20.1598 31.8882 19.8933 33.5187C19.6244 35.1632 19.5 36.8647 19.5 39.2158C19.5 41.5668 19.6244 43.2684 19.8933 44.913C20.1598 46.5435 21.5315 47.7428 23.1729 47.9298C26.0143 48.2534 28.9663 48.4958 32 48.4958C35.0337 48.4958 37.9857 48.2534 40.8271 47.9298C42.4685 47.7428 43.8402 46.5435 44.1067 44.913C44.3756 43.2684 44.5 41.5668 44.5 39.2158C44.5 36.8647 44.3756 35.1632 44.1067 33.5187C43.8402 31.8882 42.4685 30.6889 40.8271 30.502" stroke="#6462D9" strokeWidth="3" strokeLinecap="round" strokeLinejoin="round"/>
    <path d="M20.5739 31.9355L29.5201 39.0269C30.9735 40.1789 33.0281 40.1808 34.4836 39.0316L43.4444 31.9564" stroke="#6462D9" strokeWidth="3" strokeLinejoin="round"/>
    <path d="M27.3862 27.3765C29.0766 29.4396 30.1073 30.4706 32.0886 32.0789C34.0699 30.4705 35.1006 29.4396 36.791 27.3765" stroke="#6462D9" strokeWidth="3.42116" strokeLinecap="round" strokeLinejoin="round"/>
    <path d="M32.071 32.0528L32.071 23.4999" stroke="#6462D9" strokeWidth="3" strokeLinecap="round" strokeLinejoin="round"/>
</svg>
