<svg width="71" height="21" viewBox="0 0 71 21" fill="none" xmlns="http://www.w3.org/2000/svg">
    <g clip-path="url(#clip0_380_226)">
        <path d="M18.2303 0.166992H21.417V20.0842H18.2303V0.166992ZM32.5707 13.7306C32.5707 16.7787 30.0077 17.0217 29.2453 17.0217C27.3404 17.0217 26.9939 15.2387 26.9939 14.1632V6.5405H23.8071V14.1473C23.8071 16.0354 24.3998 17.5937 25.4387 18.6326C26.3565 19.5512 27.7316 20.0531 29.2214 20.0531C30.2778 20.0531 31.774 19.7241 32.5707 18.9967V20.0842H35.7574V6.5405H32.5707V13.7306ZM42.1309 1.76037H38.9442V6.5405H36.5541V9.72725H38.9442V20.0842H42.1309V9.72725H44.521V6.5405H42.1309V1.76037ZM54.5569 16.0346C53.863 16.6584 52.9468 17.0042 51.9413 17.0042C49.725 17.0042 48.0973 15.3766 48.0973 13.1419C48.0973 10.9071 49.6732 9.34803 51.9413 9.34803C52.9292 9.34803 53.863 9.67706 54.5744 10.3009L55.058 10.7167L57.2066 8.56886L56.6689 8.08368C55.4045 6.94203 53.7259 6.30149 51.9405 6.30149C47.9571 6.30149 45.0643 9.17594 45.0643 13.1251C45.0643 17.0576 48.0264 20.0348 51.9405 20.0348C53.7594 20.0348 55.4555 19.3943 56.7039 18.2343L57.2234 17.7491L55.0413 15.6028L54.5569 16.0346ZM68.581 7.72119C67.6632 6.8034 66.5877 6.30149 65.0978 6.30149C64.0414 6.30149 62.8448 6.63052 62.0481 7.3571V0.166992H58.8614V20.0842H62.0481V12.6232C62.0481 9.57508 64.2135 9.33289 64.976 9.33289C66.8808 9.33289 66.8283 11.1167 66.8283 12.1906V20.0842H70.015V12.2073C70.015 10.3192 69.6206 8.76087 68.581 7.72119" fill="white"/>
        <path d="M51.8362 10.873C52.4473 10.873 53.0333 11.1158 53.4654 11.5479C53.8975 11.98 54.1402 12.566 54.1402 13.1771C54.1402 13.7881 53.8975 14.3742 53.4654 14.8063C53.0333 15.2383 52.4473 15.4811 51.8362 15.4811C51.2251 15.4811 50.6391 15.2383 50.207 14.8063C49.7749 14.3742 49.5322 13.7881 49.5322 13.1771C49.5322 12.566 49.7749 11.98 50.207 11.5479C50.6391 11.1158 51.2251 10.873 51.8362 10.873" fill="#FF3D2E"/>
        <path d="M13.769 15.0817C12.5573 16.3285 10.9113 17.0041 9.17931 17.0041C5.62926 17.0041 3.048 14.2157 3.048 10.3884C3.048 6.54362 5.62926 3.75521 9.17931 3.75521C10.8946 3.75521 12.5222 4.43001 13.7523 5.66009L14.2367 6.14527L16.367 4.01493L15.8994 3.52975C14.1331 1.71091 11.743 0.724609 9.17931 0.724609C3.94905 0.724609 0.017395 4.88093 0.017395 10.4052C0.017395 15.9127 3.96658 20.0523 9.17931 20.0523C11.7606 20.0523 14.1506 19.0484 15.9169 17.2296L16.3846 16.7444L14.2717 14.5798L13.769 15.0817Z" fill="white"/>
    </g>
    <defs>
        <clipPath id="clip0_380_226">
            <rect width="70.0323" height="19.9172" fill="white" transform="translate(0 0.166992)"/>
        </clipPath>
    </defs>
</svg>
