<svg width="36" height="36" viewBox="0 0 36 36" fill="none" xmlns="http://www.w3.org/2000/svg">
    <path d="M21.7628 11.3721C21.9162 12.7906 23.07 13.9315 24.5037 14.0895C25.5686 14.2069 26.6621 14.3077 27.7769 14.3077C28.8917 14.3077 29.9851 14.2069 31.0501 14.0895C32.4838 13.9315 33.6376 12.7906 33.791 11.3721C33.9043 10.325 34 9.2499 34 8.15387C34 7.05783 33.9043 5.98277 33.791 4.93561C33.6376 3.51712 32.4838 2.37624 31.0501 2.2182C29.9851 2.10082 28.8917 2 27.7769 2C26.6621 2 25.5686 2.10082 24.5037 2.2182C23.07 2.37624 21.9162 3.51712 21.7628 4.93561C21.6495 5.98277 21.5538 7.05783 21.5538 8.15387C21.5538 9.2499 21.6495 10.325 21.7628 11.3721Z" fill="#8381EC"/>
    <path d="M33.791 4.93561L32.2117 5.10648L33.791 4.93561ZM31.0501 2.2182L31.2241 0.639256L31.0501 2.2182ZM31.0501 14.0895L30.876 12.5106L31.0501 14.0895ZM33.791 11.3721L32.2117 11.2013L33.791 11.3721ZM24.5037 2.2182L24.3297 0.639256L24.5037 2.2182ZM21.7628 4.93561L23.3421 5.10648L21.7628 4.93561ZM24.5037 14.0895L24.6777 12.5106L24.5037 14.0895ZM21.7628 11.3721L23.3421 11.2013L21.7628 11.3721ZM27.7769 12.7192C26.7522 12.7192 25.7292 12.6265 24.6777 12.5106L24.3297 15.6685C25.4081 15.7874 26.572 15.8962 27.7769 15.8962V12.7192ZM30.876 12.5106C29.8246 12.6265 28.8016 12.7192 27.7769 12.7192V15.8962C28.9818 15.8962 30.1457 15.7874 31.2241 15.6685L30.876 12.5106ZM35.3703 11.543C35.4853 10.4805 35.5885 9.33729 35.5885 8.15387H32.4115C32.4115 9.16252 32.3234 10.1695 32.2117 11.2013L35.3703 11.543ZM35.5885 8.15387C35.5885 6.97045 35.4853 5.82729 35.3703 4.76475L32.2117 5.10648C32.3234 6.13824 32.4115 7.14522 32.4115 8.15387H35.5885ZM27.7769 3.58851C28.8016 3.58851 29.8246 3.68125 30.876 3.79715L31.2241 0.639256C30.1457 0.520382 28.9818 0.411493 27.7769 0.411493V3.58851ZM24.6777 3.79715C25.7292 3.68125 26.7522 3.58851 27.7769 3.58851V0.411493C26.572 0.411493 25.4081 0.520382 24.3297 0.639256L24.6777 3.79715ZM20.1835 4.76475C20.0685 5.82729 19.9653 6.97045 19.9653 8.15387H23.1423C23.1423 7.14522 23.2304 6.13824 23.3421 5.10648L20.1835 4.76475ZM19.9653 8.15387C19.9653 9.33729 20.0685 10.4805 20.1835 11.543L23.3421 11.2013C23.2304 10.1695 23.1423 9.16252 23.1423 8.15387H19.9653ZM35.3703 4.76475C35.135 2.59006 33.3832 0.877234 31.2241 0.639256L30.876 3.79715C31.5845 3.87524 32.1401 4.44418 32.2117 5.10648L35.3703 4.76475ZM31.2241 15.6685C33.3832 15.4305 35.135 13.7177 35.3703 11.543L32.2117 11.2013C32.1401 11.8636 31.5845 12.4325 30.876 12.5106L31.2241 15.6685ZM24.3297 0.639256C22.1706 0.877234 20.4188 2.59006 20.1835 4.76475L23.3421 5.10648C23.4137 4.44418 23.9693 3.87524 24.6777 3.79715L24.3297 0.639256ZM24.6777 12.5106C23.9693 12.4325 23.4137 11.8636 23.3421 11.2013L20.1835 11.543C20.4188 13.7177 22.1706 15.4305 24.3297 15.6685L24.6777 12.5106Z" fill="white"/>
    <path d="M2.20896 11.3721C2.36243 12.7906 3.51615 13.9315 4.9499 14.0895C6.01484 14.2069 7.10828 14.3077 8.22309 14.3077C9.3379 14.3077 10.4313 14.2069 11.4963 14.0895C12.93 13.9315 14.0837 12.7906 14.2372 11.3721C14.3505 10.325 14.4462 9.2499 14.4462 8.15387C14.4462 7.05783 14.3505 5.98277 14.2372 4.93561C14.0837 3.51712 12.93 2.37624 11.4963 2.2182C10.4313 2.10082 9.3379 2 8.22309 2C7.10828 2 6.01484 2.10082 4.9499 2.2182C3.51615 2.37624 2.36243 3.51712 2.20896 4.93561C2.09567 5.98277 2 7.05783 2 8.15387C2 9.2499 2.09567 10.325 2.20896 11.3721Z" fill="#8381EC"/>
    <path d="M14.2372 4.93561L12.6579 5.10648L14.2372 4.93561ZM11.4963 2.2182L11.6703 0.639256L11.4963 2.2182ZM11.4963 14.0895L11.3222 12.5106L11.4963 14.0895ZM14.2372 11.3721L12.6579 11.2013L14.2372 11.3721ZM4.9499 2.2182L4.77586 0.639256L4.9499 2.2182ZM2.20896 4.93561L3.78825 5.10648L2.20896 4.93561ZM4.9499 14.0895L5.12394 12.5106L4.9499 14.0895ZM2.20896 11.3721L3.78825 11.2013L2.20896 11.3721ZM8.22309 12.7192C7.1984 12.7192 6.17536 12.6265 5.12394 12.5106L4.77586 15.6685C5.85433 15.7874 7.01815 15.8962 8.22309 15.8962V12.7192ZM11.3222 12.5106C10.2708 12.6265 9.24778 12.7192 8.22309 12.7192V15.8962C9.42803 15.8962 10.5919 15.7874 11.6703 15.6685L11.3222 12.5106ZM15.8165 11.543C15.9315 10.4805 16.0347 9.33729 16.0347 8.15387H12.8577C12.8577 9.16252 12.7696 10.1695 12.6579 11.2013L15.8165 11.543ZM16.0347 8.15387C16.0347 6.97045 15.9315 5.82729 15.8165 4.76475L12.6579 5.10648C12.7696 6.13824 12.8577 7.14522 12.8577 8.15387H16.0347ZM8.22309 3.58851C9.24778 3.58851 10.2708 3.68125 11.3222 3.79715L11.6703 0.639256C10.5919 0.520382 9.42803 0.411493 8.22309 0.411493V3.58851ZM5.12394 3.79715C6.17536 3.68125 7.1984 3.58851 8.22309 3.58851V0.411493C7.01815 0.411493 5.85433 0.520382 4.77586 0.639256L5.12394 3.79715ZM0.629672 4.76475C0.514714 5.82729 0.411493 6.97045 0.411493 8.15387H3.58851C3.58851 7.14522 3.67663 6.13824 3.78825 5.10648L0.629672 4.76475ZM0.411493 8.15387C0.411493 9.33729 0.514714 10.4805 0.629672 11.543L3.78825 11.2013C3.67663 10.1695 3.58851 9.16252 3.58851 8.15387H0.411493ZM15.8165 4.76475C15.5812 2.59006 13.8294 0.877234 11.6703 0.639256L11.3222 3.79715C12.0307 3.87524 12.5863 4.44418 12.6579 5.10648L15.8165 4.76475ZM11.6703 15.6685C13.8294 15.4305 15.5812 13.7177 15.8165 11.543L12.6579 11.2013C12.5863 11.8636 12.0307 12.4325 11.3222 12.5106L11.6703 15.6685ZM4.77586 0.639256C2.61683 0.877234 0.864954 2.59006 0.629672 4.76475L3.78825 5.10648C3.85991 4.44418 4.41547 3.87524 5.12394 3.79715L4.77586 0.639256ZM5.12394 12.5106C4.41547 12.4325 3.85991 11.8636 3.78825 11.2013L0.629672 11.543C0.864955 13.7177 2.61683 15.4305 4.77586 15.6685L5.12394 12.5106Z" fill="white"/>
    <path d="M2.20896 31.0643C2.36243 32.4828 3.51615 33.6236 4.9499 33.7817C6.01484 33.8991 7.10828 33.9999 8.22309 33.9999C9.3379 33.9999 10.4313 33.8991 11.4963 33.7817C12.93 33.6236 14.0837 32.4828 14.2372 31.0643C14.3505 30.0171 14.4462 28.942 14.4462 27.846C14.4462 26.75 14.3505 25.6749 14.2372 24.6278C14.0837 23.2093 12.93 22.0684 11.4963 21.9103C10.4313 21.793 9.3379 21.6921 8.22309 21.6921C7.10828 21.6921 6.01484 21.793 4.9499 21.9103C3.51615 22.0684 2.36243 23.2093 2.20896 24.6278C2.09567 25.6749 2 26.75 2 27.846C2 28.942 2.09567 30.0171 2.20896 31.0643Z" fill="#8381EC"/>
    <path d="M14.2372 24.6278L12.6579 24.7986L14.2372 24.6278ZM11.4963 21.9103L11.6703 20.3314L11.4963 21.9103ZM11.4963 33.7817L11.3222 32.2027L11.4963 33.7817ZM14.2372 31.0643L12.6579 30.8934L14.2372 31.0643ZM4.9499 21.9103L4.77586 20.3314L4.9499 21.9103ZM2.20896 24.6278L3.78825 24.7986L2.20896 24.6278ZM4.9499 33.7817L5.12394 32.2027L4.9499 33.7817ZM2.20896 31.0643L3.78825 30.8934L2.20896 31.0643ZM8.22309 32.4114C7.1984 32.4114 6.17536 32.3186 5.12394 32.2027L4.77586 35.3606C5.85433 35.4795 7.01815 35.5884 8.22309 35.5884V32.4114ZM11.3222 32.2027C10.2708 32.3186 9.24778 32.4114 8.22309 32.4114V35.5884C9.42803 35.5884 10.5919 35.4795 11.6703 35.3606L11.3222 32.2027ZM15.8165 31.2351C15.9315 30.1726 16.0347 29.0294 16.0347 27.846H12.8577C12.8577 28.8547 12.7696 29.8616 12.6579 30.8934L15.8165 31.2351ZM16.0347 27.846C16.0347 26.6626 15.9315 25.5194 15.8165 24.4569L12.6579 24.7986C12.7696 25.8304 12.8577 26.8374 12.8577 27.846H16.0347ZM8.22309 23.2806C9.24778 23.2806 10.2708 23.3734 11.3222 23.4893L11.6703 20.3314C10.5919 20.2125 9.42803 20.1036 8.22309 20.1036V23.2806ZM5.12394 23.4893C6.17536 23.3734 7.1984 23.2806 8.22309 23.2806V20.1036C7.01815 20.1036 5.85433 20.2125 4.77586 20.3314L5.12394 23.4893ZM0.629672 24.4569C0.514714 25.5194 0.411493 26.6626 0.411493 27.846H3.58851C3.58851 26.8374 3.67663 25.8304 3.78825 24.7986L0.629672 24.4569ZM0.411493 27.846C0.411493 29.0294 0.514714 30.1726 0.629672 31.2351L3.78825 30.8934C3.67663 29.8616 3.58851 28.8547 3.58851 27.846H0.411493ZM15.8165 24.4569C15.5812 22.2822 13.8294 20.5694 11.6703 20.3314L11.3222 23.4893C12.0307 23.5674 12.5863 24.1363 12.6579 24.7986L15.8165 24.4569ZM11.6703 35.3606C13.8294 35.1226 15.5812 33.4098 15.8165 31.2351L12.6579 30.8934C12.5863 31.5557 12.0307 32.1246 11.3222 32.2027L11.6703 35.3606ZM4.77586 20.3314C2.61683 20.5694 0.864954 22.2822 0.629672 24.4569L3.78825 24.7986C3.85991 24.1363 4.41547 23.5674 5.12394 23.4893L4.77586 20.3314ZM5.12394 32.2027C4.41547 32.1246 3.85991 31.5557 3.78825 30.8934L0.629672 31.2351C0.864955 33.4098 2.61683 35.1226 4.77586 35.3606L5.12394 32.2027Z" fill="white"/>
    <path d="M21.7628 31.0643C21.9162 32.4828 23.07 33.6236 24.5037 33.7817C25.5686 33.8991 26.6621 33.9999 27.7769 33.9999C28.8917 33.9999 29.9851 33.8991 31.0501 33.7817C32.4838 33.6236 33.6376 32.4828 33.791 31.0643C33.9043 30.0171 34 28.942 34 27.846C34 26.75 33.9043 25.6749 33.791 24.6278C33.6376 23.2093 32.4838 22.0684 31.0501 21.9103C29.9851 21.793 28.8917 21.6921 27.7769 21.6921C26.6621 21.6921 25.5686 21.793 24.5037 21.9103C23.07 22.0684 21.9162 23.2093 21.7628 24.6278C21.6495 25.6749 21.5538 26.75 21.5538 27.846C21.5538 28.942 21.6495 30.0171 21.7628 31.0643Z" fill="#8381EC"/>
    <path d="M33.791 24.6278L32.2117 24.7986L33.791 24.6278ZM31.0501 21.9103L31.2241 20.3314L31.0501 21.9103ZM31.0501 33.7817L30.876 32.2027L31.0501 33.7817ZM33.791 31.0643L32.2117 30.8934L33.791 31.0643ZM24.5037 21.9103L24.3297 20.3314L24.5037 21.9103ZM21.7628 24.6278L23.3421 24.7986L21.7628 24.6278ZM24.5037 33.7817L24.6777 32.2027L24.5037 33.7817ZM21.7628 31.0643L23.3421 30.8934L21.7628 31.0643ZM27.7769 32.4114C26.7522 32.4114 25.7292 32.3186 24.6777 32.2027L24.3297 35.3606C25.4081 35.4795 26.572 35.5884 27.7769 35.5884V32.4114ZM30.876 32.2027C29.8246 32.3186 28.8016 32.4114 27.7769 32.4114V35.5884C28.9818 35.5884 30.1457 35.4795 31.2241 35.3606L30.876 32.2027ZM35.3703 31.2351C35.4853 30.1726 35.5885 29.0294 35.5885 27.846H32.4115C32.4115 28.8547 32.3234 29.8616 32.2117 30.8934L35.3703 31.2351ZM35.5885 27.846C35.5885 26.6626 35.4853 25.5194 35.3703 24.4569L32.2117 24.7986C32.3234 25.8304 32.4115 26.8374 32.4115 27.846H35.5885ZM27.7769 23.2806C28.8016 23.2806 29.8246 23.3734 30.876 23.4893L31.2241 20.3314C30.1457 20.2125 28.9818 20.1036 27.7769 20.1036V23.2806ZM24.6777 23.4893C25.7292 23.3734 26.7522 23.2806 27.7769 23.2806V20.1036C26.572 20.1036 25.4081 20.2125 24.3297 20.3314L24.6777 23.4893ZM20.1835 24.4569C20.0685 25.5194 19.9653 26.6626 19.9653 27.846H23.1423C23.1423 26.8374 23.2304 25.8304 23.3421 24.7986L20.1835 24.4569ZM19.9653 27.846C19.9653 29.0294 20.0685 30.1726 20.1835 31.2351L23.3421 30.8934C23.2304 29.8616 23.1423 28.8547 23.1423 27.846H19.9653ZM35.3703 24.4569C35.135 22.2822 33.3832 20.5694 31.2241 20.3314L30.876 23.4893C31.5845 23.5674 32.1401 24.1363 32.2117 24.7986L35.3703 24.4569ZM31.2241 35.3606C33.3832 35.1226 35.135 33.4098 35.3703 31.2351L32.2117 30.8934C32.1401 31.5557 31.5845 32.1246 30.876 32.2027L31.2241 35.3606ZM24.3297 20.3314C22.1706 20.5694 20.4188 22.2822 20.1835 24.4569L23.3421 24.7986C23.4137 24.1363 23.9693 23.5674 24.6777 23.4893L24.3297 20.3314ZM24.6777 32.2027C23.9693 32.1246 23.4137 31.5557 23.3421 30.8934L20.1835 31.2351C20.4188 33.4098 22.1706 35.1226 24.3297 35.3606L24.6777 32.2027Z" fill="white"/>
</svg>
